<svg  viewBox="0 0 83 84" fill="none" xmlns="http://www.w3.org/2000/svg">
<path d="M41.5875 0C33.5062 0.0153543 25.6037 2.38046 18.8426 6.80724C12.0816 11.234 6.75376 17.5314 3.50811 24.9324C0.262469 32.3333 -0.760908 40.5184 0.562634 48.4906C1.88618 56.4629 5.49951 63.8782 10.9625 69.8333C14.8643 74.0627 19.5998 77.438 24.8706 79.7467C30.1414 82.0553 35.8333 83.2472 41.5875 83.2472C47.3418 83.2472 53.0336 82.0553 58.3044 79.7467C63.5753 77.438 68.3108 74.0627 72.2125 69.8333C77.6755 63.8782 81.2889 56.4629 82.6124 48.4906C83.936 40.5184 82.9126 32.3333 79.6669 24.9324C76.4213 17.5314 71.0935 11.234 64.3324 6.80724C57.5713 2.38046 49.6689 0.0153543 41.5875 0ZM41.5875 75C32.9561 74.9869 24.6663 71.6262 18.4625 65.625C20.346 61.0397 23.5502 57.1179 27.6677 54.3579C31.7853 51.5978 36.6305 50.1242 41.5875 50.1242C46.5446 50.1242 51.3897 51.5978 55.5073 54.3579C59.6249 57.1179 62.829 61.0397 64.7125 65.625C58.5087 71.6262 50.2189 74.9869 41.5875 75ZM33.2542 33.3333C33.2542 31.6852 33.7429 30.074 34.6586 28.7036C35.5743 27.3332 36.8758 26.2651 38.3985 25.6343C39.9212 25.0036 41.5968 24.8386 43.2133 25.1601C44.8298 25.4817 46.3146 26.2753 47.4801 27.4408C48.6455 28.6062 49.4392 30.0911 49.7607 31.7076C50.0823 33.3241 49.9172 34.9996 49.2865 36.5224C48.6558 38.0451 47.5877 39.3466 46.2173 40.2622C44.8469 41.1779 43.2357 41.6667 41.5875 41.6667C39.3774 41.6667 37.2578 40.7887 35.695 39.2259C34.1322 37.6631 33.2542 35.5435 33.2542 33.3333ZM70.3792 58.3333C66.6564 51.9657 60.9267 47.0126 54.0875 44.25C56.2091 41.8444 57.5914 38.8777 58.0686 35.706C58.5459 32.5342 58.0978 29.2921 56.7782 26.3687C55.4585 23.4453 53.3233 20.9648 50.6288 19.2249C47.9343 17.4849 44.795 16.5594 41.5875 16.5594C38.3801 16.5594 35.2407 17.4849 32.5462 19.2249C29.8518 20.9648 27.7166 23.4453 26.3969 26.3687C25.0772 29.2921 24.6291 32.5342 25.1064 35.706C25.5837 38.8777 26.966 41.8444 29.0875 44.25C22.2484 47.0126 16.5186 51.9657 12.7959 58.3333C9.82896 53.2796 8.26136 47.5269 8.25419 41.6667C8.25419 32.8261 11.7661 24.3477 18.0173 18.0964C24.2685 11.8452 32.747 8.33333 41.5875 8.33333C50.4281 8.33333 58.9065 11.8452 65.1577 18.0964C71.409 24.3477 74.9209 32.8261 74.9209 41.6667C74.9137 47.5269 73.3461 53.2796 70.3792 58.3333Z" fill="#F7924A"/>
</svg>
