<svg width="172" height="172" viewBox="0 0 172 172" fill="none" xmlns="http://www.w3.org/2000/svg">
<path d="M77.6327 89.274C73.871 89.274 70.8215 92.5579 70.8215 96.6087C70.8215 98.6059 71.5778 100.517 72.9157 101.9L74.288 103.319C76.7472 105.861 79.7418 107.448 82.8694 108.079C82.3526 114.65 79.7603 119.714 75.9349 122.539C71.7068 125.661 65.2786 126.553 56.8572 122.595C55.3205 121.873 53.5312 122.629 52.8607 124.284C52.1901 125.939 52.8922 127.866 54.4288 128.588C64.2216 133.19 72.9719 132.655 79.3687 127.931C82.1802 125.855 84.4002 123.069 86 119.794C87.5998 123.069 89.8198 125.855 92.6313 127.931C99.0281 132.655 107.778 133.19 117.571 128.588C119.108 127.866 119.81 125.939 119.139 124.284C118.469 122.629 116.679 121.873 115.143 122.595C106.721 126.553 100.293 125.661 96.065 122.539C92.2397 119.714 89.6474 114.65 89.1306 108.079C92.2582 107.448 95.2528 105.861 97.712 103.319L99.0843 101.9C100.422 100.517 101.179 98.6059 101.179 96.6087C101.179 92.5579 98.129 89.274 94.3673 89.274H77.6327Z" fill="white"/>
<path d="M67.7858 79.4669C67.7858 83.0777 65.0675 86.0049 61.7144 86.0049C58.3612 86.0049 55.643 83.0777 55.643 79.4669C55.643 75.856 58.3612 72.9288 61.7144 72.9288C65.0675 72.9288 67.7858 75.856 67.7858 79.4669Z" fill="white"/>
<path d="M110.286 86.0049C113.639 86.0049 116.357 83.0777 116.357 79.4669C116.357 75.856 113.639 72.9288 110.286 72.9288C106.932 72.9288 104.214 75.856 104.214 79.4669C104.214 83.0777 106.932 86.0049 110.286 86.0049Z" fill="white"/>
<path fill-rule="evenodd" clip-rule="evenodd" d="M63.725 24.1236C62.0303 20.8446 59.2128 17.9331 56.0955 15.4407C52.3406 12.4387 47.8075 9.77552 43.3042 7.59293C38.7922 5.4061 34.219 3.65781 30.3362 2.51641C28.3959 1.94603 26.5899 1.51594 25.0247 1.26271C23.5254 1.02016 22.012 0.898709 20.7652 1.10513C19.638 1.29174 18.7031 2.14286 18.3447 3.30867C15.4244 12.8063 15.79 26.1439 17.4828 37.4248C18.3384 43.1269 19.5588 48.477 20.9643 52.7573C21.6661 54.8949 22.4344 56.8278 23.2577 58.4278C23.6823 59.2531 24.1611 60.0688 24.7029 60.8012C23.2155 65.3391 22.3693 70.1333 22.2619 75.1136C14.628 84.7575 10.1074 96.3491 10.1074 108.888C10.1074 110.797 10.2119 112.682 10.4159 114.542L3.65949 115.451C1.99586 115.675 0.815808 117.309 1.02376 119.101C1.23171 120.892 2.74893 122.163 4.41255 121.939L11.538 120.98C12.5854 125.341 14.1865 129.526 16.27 133.485L5.81554 138.603C4.28925 139.35 3.61435 141.288 4.30812 142.931C5.00189 144.575 6.80161 145.302 8.32791 144.555L19.6025 139.036C23.1432 144.257 27.561 148.993 32.661 153.112C46.4196 164.224 65.2878 171 86 171C106.712 171 125.58 164.224 139.339 153.112C144.439 148.993 148.857 144.257 152.398 139.036L163.672 144.555C165.198 145.302 166.998 144.575 167.692 142.931C168.386 141.288 167.711 139.35 166.184 138.603L155.73 133.485C157.814 129.526 159.415 125.341 160.462 120.98L167.587 121.939C169.251 122.163 170.768 120.892 170.976 119.101C171.184 117.309 170.004 115.675 168.34 115.451L161.584 114.542C161.788 112.682 161.893 110.797 161.893 108.888C161.893 96.3491 157.372 84.7575 149.738 75.1136C149.631 70.1333 148.785 65.3391 147.297 60.8012C147.839 60.0688 148.318 59.2531 148.742 58.4279C149.566 56.8278 150.334 54.8949 151.036 52.7574C152.441 48.4771 153.662 43.1269 154.517 37.4249C156.21 26.1439 156.576 12.8064 153.655 3.3087C153.297 2.1429 152.362 1.29177 151.235 1.10516C149.987 0.898534 148.497 1.02004 147.027 1.26493C145.497 1.51999 143.745 1.95272 141.871 2.52527C138.123 3.67099 133.734 5.42445 129.408 7.61597C125.09 9.80375 120.747 12.4725 117.137 15.4799C114.005 18.0897 111.2 21.1388 109.572 24.5594C102.239 22.0144 94.2724 20.6241 86 20.6241C78.2128 20.6241 70.6966 21.8561 63.725 24.1236ZM136.033 51.8539C129.61 42.3318 119.524 34.7236 107.25 30.5856V46.7764C107.25 48.5819 105.891 50.0455 104.214 50.0455C102.538 50.0455 101.179 48.5819 101.179 46.7764V28.8681C97.2935 27.972 93.2326 27.4113 89.0357 27.2282V53.3145C89.0357 55.12 87.6766 56.5836 86 56.5836C84.3234 56.5836 82.9643 55.12 82.9643 53.3145V27.2282C78.7674 27.4113 74.7065 27.972 70.8215 28.8681V46.7764C70.8215 48.5819 69.4623 50.0455 67.7858 50.0455C66.1092 50.0455 64.7501 48.5819 64.7501 46.7764V30.5856C54.6723 33.9831 46.0693 39.7202 39.7583 46.9352C37.0545 50.2915 34.588 54.0311 32.4225 58.0856C29.7706 63.7289 28.3216 69.8527 28.3216 76.1978L28.3219 76.3382L28.326 77.5853L27.5578 78.5185C20.3012 87.3331 16.1788 97.7723 16.1788 108.888C16.1788 110.517 16.2676 112.133 16.442 113.731L27.9451 112.182C29.6087 111.959 31.126 113.229 31.3339 115.021C31.5419 116.812 30.3618 118.446 28.6982 118.67L17.6241 120.161C18.5785 123.83 19.9916 127.38 21.8218 130.768L39.2083 122.257C40.7346 121.51 42.5343 122.237 43.2281 123.881C43.9218 125.524 43.2469 127.462 41.7206 128.209L25.2592 136.267C28.2817 140.497 31.9954 144.401 36.3038 147.881C48.9142 158.066 66.4744 164.462 86 164.462C105.526 164.462 123.086 158.066 135.696 147.881C140.005 144.401 143.718 140.497 146.741 136.267L130.279 128.209C128.753 127.462 128.078 125.524 128.772 123.881C129.466 122.237 131.265 121.51 132.792 122.257L150.178 130.768C152.008 127.38 153.422 123.83 154.376 120.161L143.302 118.67C141.638 118.446 140.458 116.812 140.666 115.021C140.874 113.229 142.391 111.959 144.055 112.182L155.558 113.731C155.732 112.133 155.821 110.517 155.821 108.888C155.821 97.7723 151.699 87.3331 144.442 78.5185L143.674 77.5855L143.678 76.3386L143.678 76.1978C143.678 69.6774 142.148 63.3906 139.355 57.6189C138.296 55.6128 137.189 53.6887 136.033 51.8539Z" fill="white"/>
<path d="M77.6327 89.274C73.871 89.274 70.8215 92.5579 70.8215 96.6087C70.8215 98.6059 71.5778 100.517 72.9157 101.9L74.288 103.319C76.7472 105.861 79.7418 107.448 82.8694 108.079C82.3526 114.65 79.7603 119.714 75.9349 122.539C71.7068 125.661 65.2786 126.553 56.8572 122.595C55.3205 121.873 53.5312 122.629 52.8607 124.284C52.1901 125.939 52.8922 127.866 54.4288 128.588C64.2216 133.19 72.9719 132.655 79.3687 127.931C82.1802 125.855 84.4002 123.069 86 119.794C87.5998 123.069 89.8198 125.855 92.6313 127.931C99.0281 132.655 107.778 133.19 117.571 128.588C119.108 127.866 119.81 125.939 119.139 124.284C118.469 122.629 116.679 121.873 115.143 122.595C106.721 126.553 100.293 125.661 96.065 122.539C92.2397 119.714 89.6474 114.65 89.1306 108.079C92.2582 107.448 95.2528 105.861 97.712 103.319L99.0843 101.9C100.422 100.517 101.179 98.6059 101.179 96.6087C101.179 92.5579 98.129 89.274 94.3673 89.274H77.6327Z" stroke="#817272" stroke-linecap="round" stroke-linejoin="round"/>
<path d="M67.7858 79.4669C67.7858 83.0777 65.0675 86.0049 61.7144 86.0049C58.3612 86.0049 55.643 83.0777 55.643 79.4669C55.643 75.856 58.3612 72.9288 61.7144 72.9288C65.0675 72.9288 67.7858 75.856 67.7858 79.4669Z" stroke="#817272" stroke-linecap="round" stroke-linejoin="round"/>
<path d="M110.286 86.0049C113.639 86.0049 116.357 83.0777 116.357 79.4669C116.357 75.856 113.639 72.9288 110.286 72.9288C106.932 72.9288 104.214 75.856 104.214 79.4669C104.214 83.0777 106.932 86.0049 110.286 86.0049Z" stroke="#817272" stroke-linecap="round" stroke-linejoin="round"/>
<path fill-rule="evenodd" clip-rule="evenodd" d="M63.725 24.1236C62.0303 20.8446 59.2128 17.9331 56.0955 15.4407C52.3406 12.4387 47.8075 9.77552 43.3042 7.59293C38.7922 5.4061 34.219 3.65781 30.3362 2.51641C28.3959 1.94603 26.5899 1.51594 25.0247 1.26271C23.5254 1.02016 22.012 0.898709 20.7652 1.10513C19.638 1.29174 18.7031 2.14286 18.3447 3.30867C15.4244 12.8063 15.79 26.1439 17.4828 37.4248C18.3384 43.1269 19.5588 48.477 20.9643 52.7573C21.6661 54.8949 22.4344 56.8278 23.2577 58.4278C23.6823 59.2531 24.1611 60.0688 24.7029 60.8012C23.2155 65.3391 22.3693 70.1333 22.2619 75.1136C14.628 84.7575 10.1074 96.3491 10.1074 108.888C10.1074 110.797 10.2119 112.682 10.4159 114.542L3.65949 115.451C1.99586 115.675 0.815808 117.309 1.02376 119.101C1.23171 120.892 2.74893 122.163 4.41255 121.939L11.538 120.98C12.5854 125.341 14.1865 129.526 16.27 133.485L5.81554 138.603C4.28925 139.35 3.61435 141.288 4.30812 142.931C5.00189 144.575 6.80161 145.302 8.32791 144.555L19.6025 139.036C23.1432 144.257 27.561 148.993 32.661 153.112C46.4196 164.224 65.2878 171 86 171C106.712 171 125.58 164.224 139.339 153.112C144.439 148.993 148.857 144.257 152.398 139.036L163.672 144.555C165.198 145.302 166.998 144.575 167.692 142.931C168.386 141.288 167.711 139.35 166.184 138.603L155.73 133.485C157.814 129.526 159.415 125.341 160.462 120.98L167.587 121.939C169.251 122.163 170.768 120.892 170.976 119.101C171.184 117.309 170.004 115.675 168.34 115.451L161.584 114.542C161.788 112.682 161.893 110.797 161.893 108.888C161.893 96.3491 157.372 84.7575 149.738 75.1136C149.631 70.1333 148.785 65.3391 147.297 60.8012C147.839 60.0688 148.318 59.2531 148.742 58.4279C149.566 56.8278 150.334 54.8949 151.036 52.7574C152.441 48.4771 153.662 43.1269 154.517 37.4249C156.21 26.1439 156.576 12.8064 153.655 3.3087C153.297 2.1429 152.362 1.29177 151.235 1.10516C149.987 0.898534 148.497 1.02004 147.027 1.26493C145.497 1.51999 143.745 1.95272 141.871 2.52527C138.123 3.67099 133.734 5.42445 129.408 7.61597C125.09 9.80375 120.747 12.4725 117.137 15.4799C114.005 18.0897 111.2 21.1388 109.572 24.5594C102.239 22.0144 94.2724 20.6241 86 20.6241C78.2128 20.6241 70.6966 21.8561 63.725 24.1236ZM136.033 51.8539C129.61 42.3318 119.524 34.7236 107.25 30.5856V46.7764C107.25 48.5819 105.891 50.0455 104.214 50.0455C102.538 50.0455 101.179 48.5819 101.179 46.7764V28.8681C97.2935 27.972 93.2326 27.4113 89.0357 27.2282V53.3145C89.0357 55.12 87.6766 56.5836 86 56.5836C84.3234 56.5836 82.9643 55.12 82.9643 53.3145V27.2282C78.7674 27.4113 74.7065 27.972 70.8215 28.8681V46.7764C70.8215 48.5819 69.4623 50.0455 67.7858 50.0455C66.1092 50.0455 64.7501 48.5819 64.7501 46.7764V30.5856C54.6723 33.9831 46.0693 39.7202 39.7583 46.9352C37.0545 50.2915 34.588 54.0311 32.4225 58.0856C29.7706 63.7289 28.3216 69.8527 28.3216 76.1978L28.3219 76.3382L28.326 77.5853L27.5578 78.5185C20.3012 87.3331 16.1788 97.7723 16.1788 108.888C16.1788 110.517 16.2676 112.133 16.442 113.731L27.9451 112.182C29.6087 111.959 31.126 113.229 31.3339 115.021C31.5419 116.812 30.3618 118.446 28.6982 118.67L17.6241 120.161C18.5785 123.83 19.9916 127.38 21.8218 130.768L39.2083 122.257C40.7346 121.51 42.5343 122.237 43.2281 123.881C43.9218 125.524 43.2469 127.462 41.7206 128.209L25.2592 136.267C28.2817 140.497 31.9954 144.401 36.3038 147.881C48.9142 158.066 66.4744 164.462 86 164.462C105.526 164.462 123.086 158.066 135.696 147.881C140.005 144.401 143.718 140.497 146.741 136.267L130.279 128.209C128.753 127.462 128.078 125.524 128.772 123.881C129.466 122.237 131.265 121.51 132.792 122.257L150.178 130.768C152.008 127.38 153.422 123.83 154.376 120.161L143.302 118.67C141.638 118.446 140.458 116.812 140.666 115.021C140.874 113.229 142.391 111.959 144.055 112.182L155.558 113.731C155.732 112.133 155.821 110.517 155.821 108.888C155.821 97.7723 151.699 87.3331 144.442 78.5185L143.674 77.5855L143.678 76.3386L143.678 76.1978C143.678 69.6774 142.148 63.3906 139.355 57.6189C138.296 55.6128 137.189 53.6887 136.033 51.8539Z" stroke="#817272" stroke-linecap="round" stroke-linejoin="round"/>
</svg>
