<svg width="120" height="120" viewBox="0 0 120 120" fill="none" xmlns="http://www.w3.org/2000/svg">
<path fill-rule="evenodd" clip-rule="evenodd" d="M73.4207 19.411C71.9388 16.6056 69.5095 13.2012 66.1531 10.3414C61.9864 6.79112 56.2506 3.97477 49.1018 4.42156C40.4844 4.96015 34.5028 8.97328 31.8383 14.9874C29.2441 20.843 30.1087 27.9024 33.5973 34.0746C34.0127 34.8096 34.4813 35.4795 34.9943 36.089C33.0295 36.9589 31.1742 38.0815 29.5601 39.5257C25.838 42.856 23.6871 47.7375 22.4398 52.4627C17.8189 56.9809 12.7464 62.9592 9.16081 69.59C5.42497 76.4986 3.10075 84.5037 5.12002 92.3972C6.62304 98.2726 9.26267 102.202 12.9139 104.212C15.6937 105.741 18.6559 105.936 21.3738 105.478C24.0268 109.263 28.3016 112.13 34.6206 113.431C51.1087 116.825 56.6213 116.86 61.1764 116.86C65.1698 116.941 71.2876 116.693 77.02 116.124C79.899 115.838 82.7303 115.466 85.1788 115.003C87.5466 114.555 89.8339 113.972 91.4482 113.165C94.3638 111.707 97.1853 109.51 98.9923 105.634C101.513 105.863 104.186 105.475 106.679 103.964C110.116 101.882 112.603 98.0346 114.045 92.3972C116.075 84.4611 113.715 76.4122 109.943 69.4763C106.321 62.8174 101.206 56.8216 96.5686 52.3099C95.3163 47.6357 93.1725 42.8215 89.489 39.5257C88.1266 38.3067 86.5955 37.32 84.9807 36.5222C85.7902 33.3748 85.7871 29.8514 84.4347 26.7309C82.6866 22.6975 78.9582 19.9426 73.4207 19.411ZM83.9304 39.4928C83.0178 39.0206 82.0547 38.6124 81.0571 38.2613C81.4453 37.4257 81.7594 36.5358 81.9866 35.6202C83.4837 29.5868 81.2018 22.4422 71.409 22.4422C69.1658 17.1545 61.6027 6.77135 49.2968 7.54047C33.9143 8.50188 30.0687 21.4808 36.3178 32.537C36.8338 33.4499 37.4601 34.2375 38.1761 34.9132C39.2254 35.9033 40.4675 36.6529 41.8377 37.204C40.3649 37.5101 38.9209 37.9099 37.5483 38.4221C35.3351 39.2479 33.3075 40.366 31.6438 41.8545C28.3776 44.7769 26.3986 49.3451 25.2515 54.0905C15.9667 62.9789 4.65938 77.9872 8.14752 91.6227C10.9041 102.398 17.2123 103.689 22.869 101.906C24.8388 105.797 28.5886 108.998 35.2508 110.37C51.5946 113.735 56.8823 113.735 61.2086 113.735C68.8999 113.895 85.2437 112.774 90.0507 110.37C92.9901 108.9 95.6563 106.664 96.9822 102.106C102.455 103.57 108.372 101.964 111.018 91.6227C114.525 77.9131 103.075 62.8158 93.7624 53.9461C92.6102 49.2526 90.6383 44.7473 87.4052 41.8546C86.3729 40.9309 85.2004 40.1499 83.9304 39.4928Z" fill="#C18F00"/>
<path d="M49.2968 7.54047C61.6027 6.77135 69.1658 17.1545 71.409 22.4422C87.2722 22.4422 83.4266 41.1896 75.7354 43.5931C69.5824 45.5159 65.1599 39.2668 63.7178 35.9019C56.6675 38.4656 41.3171 41.3819 36.3179 32.537C30.0687 21.4808 33.9143 8.50188 49.2968 7.54047Z" fill="url(#paint0_linear_22_3)"/>
<mask id="mask0_22_3" style="mask-type:alpha" maskUnits="userSpaceOnUse" x="33" y="7" width="50" height="37">
<path d="M49.2968 7.54047C61.6027 6.77135 69.1658 17.1545 71.409 22.4422C87.2722 22.4422 83.4266 41.1896 75.7354 43.5931C69.5824 45.5159 65.1599 39.2668 63.7178 35.9019C56.6675 38.4656 41.3171 41.3819 36.3179 32.537C30.0687 21.4808 33.9143 8.50188 49.2968 7.54047Z" fill="#F8BE1A"/>
</mask>
<g mask="url(#mask0_22_3)">
<path d="M39.9361 31.3374C38.6405 33.0835 35.0774 32.0649 33.4579 31.3374C36.3371 35.157 45.6585 43.3419 59.9106 45.5245C77.7256 48.2528 86.3633 38.4309 85.2835 34.6113C84.2038 30.7917 80.4249 34.0657 76.6459 34.6113C72.867 35.157 75.0264 30.246 70.7076 25.8808C66.3888 21.5155 64.7692 26.9721 59.9106 28.6091C55.0519 30.246 53.9722 23.1525 46.4143 22.0612C38.8564 20.9699 41.5556 29.1547 39.9361 31.3374Z" fill="#F6E75A"/>
</g>
<ellipse cx="59.8965" cy="37.7842" rx="13.9403" ry="6.24911" fill="#FF5158"/>
<path d="M30.7405 97.3912C24.9721 102.358 12.3777 108.159 8.14753 91.6227C3.92228 75.1059 21.4061 56.5748 30.708 49.3463L30.7405 97.3912Z" fill="#F7924A"/>
<mask id="mask1_22_3" style="mask-type:alpha" maskUnits="userSpaceOnUse" x="7" y="49" width="24" height="54">
<path d="M30.7405 97.3912C24.9721 102.358 12.3777 108.159 8.14753 91.6227C3.92228 75.1059 21.4061 56.5748 30.708 49.3463L30.7405 97.3912Z" fill="#F8BE1A"/>
</mask>
<g mask="url(#mask1_22_3)">
<g style="mix-blend-mode:multiply">
<path d="M22.0879 71.4333C20.5497 69.5105 22.7289 59.4158 24.0107 54.6088L29.2984 52.686L30.7405 99.314C28.978 102.679 23.7223 108.255 16.8002 103.64C8.14758 97.8719 24.0107 73.8368 22.0879 71.4333Z" fill="#F9E8B9"/>
</g>
</g>
<path d="M88.4246 97.3912C94.193 102.358 106.787 108.159 111.018 91.6228C115.243 75.1059 97.759 56.5748 88.4571 49.3463L88.4246 97.3912Z" fill="#F7924A"/>
<mask id="mask2_22_3" style="mask-type:alpha" maskUnits="userSpaceOnUse" x="88" y="49" width="24" height="54">
<path d="M88.4246 97.3912C94.193 102.358 106.787 108.159 111.018 91.6228C115.243 75.1059 97.759 56.5748 88.4571 49.3463L88.4246 97.3912Z" fill="#F8BE1A"/>
</mask>
<g mask="url(#mask2_22_3)">
<g style="mix-blend-mode:multiply">
<path d="M97.0772 71.4334C98.6155 69.5106 96.4363 59.4158 95.1544 54.6088L89.8667 52.686L88.4246 99.314C90.1872 102.679 95.4429 108.255 102.365 103.64C111.018 97.8719 95.1544 73.8369 97.0772 71.4334Z" fill="#F9E8B9"/>
</g>
</g>
<path d="M29.4824 52.2052L61.2087 39.707L91.4928 52.2052C91.4928 58.3582 94.0262 70.1514 94.9876 76.2402C101.237 100.756 96.2516 107.27 90.0507 110.37C85.2437 112.774 68.8999 113.895 61.2087 113.735C56.8824 113.735 51.5946 113.735 35.2508 110.37C13.5468 105.902 22.7526 82.0087 23.714 78.163C24.4831 75.0866 27.88 59.5759 29.4824 52.2052Z" fill="url(#paint1_linear_22_3)"/>
<ellipse cx="34.4193" cy="84.4122" rx="3.84561" ry="1.92281" fill="#E6AE11"/>
<ellipse cx="84.4122" cy="84.4122" rx="3.84561" ry="1.9228" fill="#E6AE11"/>
<path d="M59.6597 95.2406C52.9205 95.2406 47.9978 92.6158 45.4425 90.5499C45.0524 90.2345 44.3977 90.6092 44.5493 91.0873C46.3689 96.8258 51.179 105.563 59.6597 105.563C68.1771 105.563 73.2474 96.7499 75.2151 91.0129C75.3765 90.5423 74.7521 90.159 74.3586 90.4633C71.6714 92.5417 66.4933 95.2406 59.6597 95.2406Z" fill="#DF6653"/>
<mask id="mask3_22_3" style="mask-type:alpha" maskUnits="userSpaceOnUse" x="44" y="90" width="32" height="16">
<path d="M59.6597 95.2406C52.9728 95.2406 48.0744 92.6563 45.5024 90.598C45.0951 90.272 44.4138 90.6644 44.5729 91.1613C46.4102 96.9005 51.2154 105.563 59.6597 105.563C68.1423 105.563 73.2059 96.8218 75.1908 91.0834C75.36 90.5944 74.7085 90.1954 74.2978 90.5101C71.5937 92.582 66.4421 95.2406 59.6597 95.2406Z" fill="#DF6653"/>
</mask>
<g mask="url(#mask3_22_3)">
<ellipse cx="59.8965" cy="105.563" rx="9.13332" ry="5.76841" fill="#E39A93"/>
<path d="M59.4157 96.9104C54.9658 96.9104 55.6016 94.9876 55.6015 94.0262H63.23C63.23 94.9876 63.8657 96.9104 59.4157 96.9104Z" fill="white"/>
</g>
<ellipse cx="59.4158" cy="85.3736" rx="5.76842" ry="2.88421" fill="#3F260F"/>
<path fill-rule="evenodd" clip-rule="evenodd" d="M44.7673 69.7054C45.5581 69.7845 46.2496 69.9298 46.6873 70.0549C47.1492 70.0549 47.1492 64.9741 41.6065 66.8217C36.0639 68.6692 36.0639 73.75 36.5258 73.75C36.6934 73.75 37.0436 73.3849 37.532 72.8757C37.8379 72.5569 38.198 72.1815 38.6014 71.8038C38.3376 72.532 38.1896 73.3489 38.1896 74.2119C38.1896 77.273 40.0508 79.7545 42.3466 79.7545C44.6425 79.7545 46.5036 77.273 46.5036 74.2119C46.5036 72.3549 45.8187 70.7112 44.7673 69.7054Z" fill="#3F260F"/>
<ellipse cx="42.7878" cy="72.8257" rx="1.15466" ry="2.30932" transform="rotate(2.56514 42.7878 72.8257)" fill="white"/>
<path fill-rule="evenodd" clip-rule="evenodd" d="M75.0257 69.7054C74.2349 69.7845 73.5432 69.9298 73.1056 70.0549C72.6437 70.0549 72.6437 64.9741 78.1863 66.8217C83.7289 68.6692 83.7289 73.75 83.267 73.75C83.0994 73.75 82.7493 73.385 82.2608 72.8757C81.955 72.5569 81.595 72.1816 81.1916 71.8039C81.4554 72.5321 81.6033 73.349 81.6033 74.2119C81.6033 77.273 79.7422 79.7546 77.4463 79.7546C75.1505 79.7546 73.2894 77.273 73.2894 74.2119C73.2894 72.3549 73.9743 70.7112 75.0257 69.7054Z" fill="#3F260F"/>
<ellipse rx="1.15465" ry="2.30932" transform="matrix(-0.998998 0.0447553 0.0447549 0.998998 77.0051 72.8257)" fill="white"/>
<g style="mix-blend-mode:multiply">
<mask id="mask4_22_3" style="mask-type:alpha" maskUnits="userSpaceOnUse" x="20" y="39" width="78" height="75">
<path d="M29.4824 52.2052L61.2087 39.707L91.4928 52.2052C91.4928 58.3582 94.0262 70.1514 94.9876 76.2402C101.237 100.756 96.2516 107.27 90.0507 110.37C85.2437 112.774 68.8999 113.895 61.2087 113.735C56.8824 113.735 51.5946 113.735 35.2508 110.37C13.5468 105.902 22.7526 82.0087 23.714 78.163C24.4831 75.0866 27.88 59.5759 29.4824 52.2052Z" fill="url(#paint2_linear_22_3)"/>
</mask>
<g mask="url(#mask4_22_3)">
<g style="mix-blend-mode:multiply" opacity="0.3">
<path fill-rule="evenodd" clip-rule="evenodd" d="M23.8439 71.914C24.4848 72.0742 26.2474 72.2024 28.1702 71.4333C28.4907 71.7537 29.7084 72.2985 32.0158 71.914C32.2963 71.8672 32.786 71.8159 33.4415 71.7472C39.1371 71.1506 57.3522 69.2423 59.6561 57.6094C61.9601 69.2423 80.1751 71.1506 85.8707 71.7472C86.5262 71.8159 87.0159 71.8672 87.2964 71.914C89.6038 72.2985 90.8216 71.7537 91.142 71.4333C93.0648 72.2024 94.8274 72.0742 95.4683 71.914C95.4683 60.529 72.0618 56.0099 59.8964 55.123C59.8965 55.1118 59.8965 55.1006 59.8965 55.0894C59.8169 55.0947 59.7367 55.1002 59.6561 55.1058C59.5755 55.1002 59.4954 55.0947 59.4158 55.0894C59.4158 55.1006 59.4158 55.1118 59.4158 55.123C47.2504 56.0099 23.8439 60.529 23.8439 71.914Z" fill="#CB8807"/>
</g>
</g>
</g>
<path fill-rule="evenodd" clip-rule="evenodd" d="M59.5246 37.0531C65.7737 35.9226 80.0986 35.3089 87.4053 41.8983C94.7119 48.4876 95.5772 63.3783 95.0965 70C93.6036 69.6528 90.4977 68.4096 87.3004 65.8782C88.6781 67.411 89.8088 68.9904 89.8088 70C81.3164 69.1925 63.3702 65.2518 59.5246 55.9491V37.0531ZM59.5245 37.0531C53.2754 35.9226 38.9505 35.3089 31.6439 41.8983C24.3372 48.4876 23.4719 63.3783 23.9526 70C25.4455 69.6528 28.5515 68.4096 31.7487 65.8782C30.371 67.411 29.2404 68.9904 29.2404 70C37.7328 69.1925 55.6789 65.2518 59.5245 55.9491V37.0531Z" fill="url(#paint3_linear_22_3)"/>
<defs>
<linearGradient id="paint0_linear_22_3" x1="57.9319" y1="7.5" x2="57.9319" y2="43.953" gradientUnits="userSpaceOnUse">
<stop stop-color="#DFDEDB"/>
<stop offset="1" stop-color="#F8BE1A"/>
</linearGradient>
<linearGradient id="paint1_linear_22_3" x1="59.4121" y1="39.707" x2="59.4121" y2="113.75" gradientUnits="userSpaceOnUse">
<stop stop-color="#E6B630"/>
<stop offset="1" stop-color="#F0DCA5"/>
</linearGradient>
<linearGradient id="paint2_linear_22_3" x1="59.4121" y1="39.707" x2="59.4121" y2="113.75" gradientUnits="userSpaceOnUse">
<stop stop-color="#FBEE74"/>
<stop offset="1" stop-color="#EDDD44"/>
</linearGradient>
<linearGradient id="paint3_linear_22_3" x1="59.5246" y1="36.342" x2="59.5246" y2="70" gradientUnits="userSpaceOnUse">
<stop stop-color="#E7AA00"/>
<stop offset="1" stop-color="#E6BA40"/>
</linearGradient>
</defs>
</svg>
